<?xml version="1.0" encoding="utf-8" standalone="no"?>
<!DOCTYPE svg PUBLIC "-//W3C//DTD SVG 1.1//EN"
  "http://www.w3.org/Graphics/SVG/1.1/DTD/svg11.dtd">
<svg xmlns:xlink="http://www.w3.org/1999/xlink" width="460.8pt" height="345.6pt" viewBox="0 0 460.8 345.6" xmlns="http://www.w3.org/2000/svg" version="1.1">
 <metadata>
  <rdf:RDF xmlns:dc="http://purl.org/dc/elements/1.1/" xmlns:cc="http://creativecommons.org/ns#" xmlns:rdf="http://www.w3.org/1999/02/22-rdf-syntax-ns#">
   <cc:Work>
    <dc:type rdf:resource="http://purl.org/dc/dcmitype/StillImage"/>
    <dc:date>2022-09-23T11:02:15.978541</dc:date>
    <dc:format>image/svg+xml</dc:format>
    <dc:creator>
     <cc:Agent>
      <dc:title>Matplotlib v3.5.2, https://matplotlib.org/</dc:title>
     </cc:Agent>
    </dc:creator>
   </cc:Work>
  </rdf:RDF>
 </metadata>
 <defs>
  <style type="text/css">*{stroke-linejoin: round; stroke-linecap: butt}</style>
 </defs>
 <g id="figure_1">
  <g id="patch_1">
   <path d="M 0 345.6 
L 460.8 345.6 
L 460.8 0 
L 0 0 
z
" style="fill: #ffffff"/>
  </g>
  <g id="axes_1">
   <g id="patch_2">
    <path d="M 57.6 307.584 
L 414.72 307.584 
L 414.72 41.472 
L 57.6 41.472 
z
" style="fill: #eaeaf2"/>
   </g>
   <g id="matplotlib.axis_1">
    <g id="xtick_1">
     <g id="text_1">
      <!-- 15 segs -->
      <g style="fill: #262626" transform="translate(125.527109 325.442281)scale(0.11 -0.11)">
       <defs>
        <path id="DejaVuSans-31" d="M 794 531 
L 1825 531 
L 1825 4091 
L 703 3866 
L 703 4441 
L 1819 4666 
L 2450 4666 
L 2450 531 
L 3481 531 
L 3481 0 
L 794 0 
L 794 531 
z
" transform="scale(0.015625)"/>
        <path id="DejaVuSans-35" d="M 691 4666 
L 3169 4666 
L 3169 4134 
L 1269 4134 
L 1269 2991 
Q 1406 3038 1543 3061 
Q 1681 3084 1819 3084 
Q 2600 3084 3056 2656 
Q 3513 2228 3513 1497 
Q 3513 744 3044 326 
Q 2575 -91 1722 -91 
Q 1428 -91 1123 -41 
Q 819 9 494 109 
L 494 744 
Q 775 591 1075 516 
Q 1375 441 1709 441 
Q 2250 441 2565 725 
Q 2881 1009 2881 1497 
Q 2881 1984 2565 2268 
Q 2250 2553 1709 2553 
Q 1456 2553 1204 2497 
Q 953 2441 691 2322 
L 691 4666 
z
" transform="scale(0.015625)"/>
        <path id="DejaVuSans-20" transform="scale(0.015625)"/>
        <path id="DejaVuSans-73" d="M 2834 3397 
L 2834 2853 
Q 2591 2978 2328 3040 
Q 2066 3103 1784 3103 
Q 1356 3103 1142 2972 
Q 928 2841 928 2578 
Q 928 2378 1081 2264 
Q 1234 2150 1697 2047 
L 1894 2003 
Q 2506 1872 2764 1633 
Q 3022 1394 3022 966 
Q 3022 478 2636 193 
Q 2250 -91 1575 -91 
Q 1294 -91 989 -36 
Q 684 19 347 128 
L 347 722 
Q 666 556 975 473 
Q 1284 391 1588 391 
Q 1994 391 2212 530 
Q 2431 669 2431 922 
Q 2431 1156 2273 1281 
Q 2116 1406 1581 1522 
L 1381 1569 
Q 847 1681 609 1914 
Q 372 2147 372 2553 
Q 372 3047 722 3315 
Q 1072 3584 1716 3584 
Q 2034 3584 2315 3537 
Q 2597 3491 2834 3397 
z
" transform="scale(0.015625)"/>
        <path id="DejaVuSans-65" d="M 3597 1894 
L 3597 1613 
L 953 1613 
Q 991 1019 1311 708 
Q 1631 397 2203 397 
Q 2534 397 2845 478 
Q 3156 559 3463 722 
L 3463 178 
Q 3153 47 2828 -22 
Q 2503 -91 2169 -91 
Q 1331 -91 842 396 
Q 353 884 353 1716 
Q 353 2575 817 3079 
Q 1281 3584 2069 3584 
Q 2775 3584 3186 3129 
Q 3597 2675 3597 1894 
z
M 3022 2063 
Q 3016 2534 2758 2815 
Q 2500 3097 2075 3097 
Q 1594 3097 1305 2825 
Q 1016 2553 972 2059 
L 3022 2063 
z
" transform="scale(0.015625)"/>
        <path id="DejaVuSans-67" d="M 2906 1791 
Q 2906 2416 2648 2759 
Q 2391 3103 1925 3103 
Q 1463 3103 1205 2759 
Q 947 2416 947 1791 
Q 947 1169 1205 825 
Q 1463 481 1925 481 
Q 2391 481 2648 825 
Q 2906 1169 2906 1791 
z
M 3481 434 
Q 3481 -459 3084 -895 
Q 2688 -1331 1869 -1331 
Q 1566 -1331 1297 -1286 
Q 1028 -1241 775 -1147 
L 775 -588 
Q 1028 -725 1275 -790 
Q 1522 -856 1778 -856 
Q 2344 -856 2625 -561 
Q 2906 -266 2906 331 
L 2906 616 
Q 2728 306 2450 153 
Q 2172 0 1784 0 
Q 1141 0 747 490 
Q 353 981 353 1791 
Q 353 2603 747 3093 
Q 1141 3584 1784 3584 
Q 2172 3584 2450 3431 
Q 2728 3278 2906 2969 
L 2906 3500 
L 3481 3500 
L 3481 434 
z
" transform="scale(0.015625)"/>
       </defs>
       <use xlink:href="#DejaVuSans-31"/>
       <use xlink:href="#DejaVuSans-35" x="63.623047"/>
       <use xlink:href="#DejaVuSans-20" x="127.246094"/>
       <use xlink:href="#DejaVuSans-73" x="159.033203"/>
       <use xlink:href="#DejaVuSans-65" x="211.132812"/>
       <use xlink:href="#DejaVuSans-67" x="272.65625"/>
       <use xlink:href="#DejaVuSans-73" x="336.132812"/>
      </g>
     </g>
    </g>
    <g id="xtick_2">
     <g id="text_2">
      <!-- 30 segs -->
      <g style="fill: #262626" transform="translate(304.087109 325.442281)scale(0.11 -0.11)">
       <defs>
        <path id="DejaVuSans-33" d="M 2597 2516 
Q 3050 2419 3304 2112 
Q 3559 1806 3559 1356 
Q 3559 666 3084 287 
Q 2609 -91 1734 -91 
Q 1441 -91 1130 -33 
Q 819 25 488 141 
L 488 750 
Q 750 597 1062 519 
Q 1375 441 1716 441 
Q 2309 441 2620 675 
Q 2931 909 2931 1356 
Q 2931 1769 2642 2001 
Q 2353 2234 1838 2234 
L 1294 2234 
L 1294 2753 
L 1863 2753 
Q 2328 2753 2575 2939 
Q 2822 3125 2822 3475 
Q 2822 3834 2567 4026 
Q 2313 4219 1838 4219 
Q 1578 4219 1281 4162 
Q 984 4106 628 3988 
L 628 4550 
Q 988 4650 1302 4700 
Q 1616 4750 1894 4750 
Q 2613 4750 3031 4423 
Q 3450 4097 3450 3541 
Q 3450 3153 3228 2886 
Q 3006 2619 2597 2516 
z
" transform="scale(0.015625)"/>
        <path id="DejaVuSans-30" d="M 2034 4250 
Q 1547 4250 1301 3770 
Q 1056 3291 1056 2328 
Q 1056 1369 1301 889 
Q 1547 409 2034 409 
Q 2525 409 2770 889 
Q 3016 1369 3016 2328 
Q 3016 3291 2770 3770 
Q 2525 4250 2034 4250 
z
M 2034 4750 
Q 2819 4750 3233 4129 
Q 3647 3509 3647 2328 
Q 3647 1150 3233 529 
Q 2819 -91 2034 -91 
Q 1250 -91 836 529 
Q 422 1150 422 2328 
Q 422 3509 836 4129 
Q 1250 4750 2034 4750 
z
" transform="scale(0.015625)"/>
       </defs>
       <use xlink:href="#DejaVuSans-33"/>
       <use xlink:href="#DejaVuSans-30" x="63.623047"/>
       <use xlink:href="#DejaVuSans-20" x="127.246094"/>
       <use xlink:href="#DejaVuSans-73" x="159.033203"/>
       <use xlink:href="#DejaVuSans-65" x="211.132812"/>
       <use xlink:href="#DejaVuSans-67" x="272.65625"/>
       <use xlink:href="#DejaVuSans-73" x="336.132812"/>
      </g>
     </g>
    </g>
    <g id="text_3">
     <!-- Test -->
     <g style="fill: #262626" transform="translate(224.345625 340.848062)scale(0.12 -0.12)">
      <defs>
       <path id="DejaVuSans-54" d="M -19 4666 
L 3928 4666 
L 3928 4134 
L 2272 4134 
L 2272 0 
L 1638 0 
L 1638 4134 
L -19 4134 
L -19 4666 
z
" transform="scale(0.015625)"/>
       <path id="DejaVuSans-74" d="M 1172 4494 
L 1172 3500 
L 2356 3500 
L 2356 3053 
L 1172 3053 
L 1172 1153 
Q 1172 725 1289 603 
Q 1406 481 1766 481 
L 2356 481 
L 2356 0 
L 1766 0 
Q 1100 0 847 248 
Q 594 497 594 1153 
L 594 3053 
L 172 3053 
L 172 3500 
L 594 3500 
L 594 4494 
L 1172 4494 
z
" transform="scale(0.015625)"/>
      </defs>
      <use xlink:href="#DejaVuSans-54"/>
      <use xlink:href="#DejaVuSans-65" x="44.083984"/>
      <use xlink:href="#DejaVuSans-73" x="105.607422"/>
      <use xlink:href="#DejaVuSans-74" x="157.707031"/>
     </g>
    </g>
   </g>
   <g id="matplotlib.axis_2">
    <g id="ytick_1">
     <g id="line2d_1">
      <path d="M 57.6 295.502473 
L 414.72 295.502473 
" clip-path="url(#p11cb6e5625)" style="fill: none; stroke: #ffffff; stroke-linecap: round"/>
     </g>
     <g id="text_4">
      <!-- 0 -->
      <g style="fill: #262626" transform="translate(41.10125 299.681613)scale(0.11 -0.11)">
       <use xlink:href="#DejaVuSans-30"/>
      </g>
     </g>
    </g>
    <g id="ytick_2">
     <g id="line2d_2">
      <path d="M 57.6 247.260305 
L 414.72 247.260305 
" clip-path="url(#p11cb6e5625)" style="fill: none; stroke: #ffffff; stroke-linecap: round"/>
     </g>
     <g id="text_5">
      <!-- 1 -->
      <g style="fill: #262626" transform="translate(41.10125 251.439445)scale(0.11 -0.11)">
       <use xlink:href="#DejaVuSans-31"/>
      </g>
     </g>
    </g>
    <g id="ytick_3">
     <g id="line2d_3">
      <path d="M 57.6 199.018137 
L 414.72 199.018137 
" clip-path="url(#p11cb6e5625)" style="fill: none; stroke: #ffffff; stroke-linecap: round"/>
     </g>
     <g id="text_6">
      <!-- 2 -->
      <g style="fill: #262626" transform="translate(41.10125 203.197277)scale(0.11 -0.11)">
       <defs>
        <path id="DejaVuSans-32" d="M 1228 531 
L 3431 531 
L 3431 0 
L 469 0 
L 469 531 
Q 828 903 1448 1529 
Q 2069 2156 2228 2338 
Q 2531 2678 2651 2914 
Q 2772 3150 2772 3378 
Q 2772 3750 2511 3984 
Q 2250 4219 1831 4219 
Q 1534 4219 1204 4116 
Q 875 4013 500 3803 
L 500 4441 
Q 881 4594 1212 4672 
Q 1544 4750 1819 4750 
Q 2544 4750 2975 4387 
Q 3406 4025 3406 3419 
Q 3406 3131 3298 2873 
Q 3191 2616 2906 2266 
Q 2828 2175 2409 1742 
Q 1991 1309 1228 531 
z
" transform="scale(0.015625)"/>
       </defs>
       <use xlink:href="#DejaVuSans-32"/>
      </g>
     </g>
    </g>
    <g id="ytick_4">
     <g id="line2d_4">
      <path d="M 57.6 150.775969 
L 414.72 150.775969 
" clip-path="url(#p11cb6e5625)" style="fill: none; stroke: #ffffff; stroke-linecap: round"/>
     </g>
     <g id="text_7">
      <!-- 3 -->
      <g style="fill: #262626" transform="translate(41.10125 154.955109)scale(0.11 -0.11)">
       <use xlink:href="#DejaVuSans-33"/>
      </g>
     </g>
    </g>
    <g id="ytick_5">
     <g id="line2d_5">
      <path d="M 57.6 102.533801 
L 414.72 102.533801 
" clip-path="url(#p11cb6e5625)" style="fill: none; stroke: #ffffff; stroke-linecap: round"/>
     </g>
     <g id="text_8">
      <!-- 4 -->
      <g style="fill: #262626" transform="translate(41.10125 106.712941)scale(0.11 -0.11)">
       <defs>
        <path id="DejaVuSans-34" d="M 2419 4116 
L 825 1625 
L 2419 1625 
L 2419 4116 
z
M 2253 4666 
L 3047 4666 
L 3047 1625 
L 3713 1625 
L 3713 1100 
L 3047 1100 
L 3047 0 
L 2419 0 
L 2419 1100 
L 313 1100 
L 313 1709 
L 2253 4666 
z
" transform="scale(0.015625)"/>
       </defs>
       <use xlink:href="#DejaVuSans-34"/>
      </g>
     </g>
    </g>
    <g id="ytick_6">
     <g id="line2d_6">
      <path d="M 57.6 54.291633 
L 414.72 54.291633 
" clip-path="url(#p11cb6e5625)" style="fill: none; stroke: #ffffff; stroke-linecap: round"/>
     </g>
     <g id="text_9">
      <!-- 5 -->
      <g style="fill: #262626" transform="translate(41.10125 58.470773)scale(0.11 -0.11)">
       <use xlink:href="#DejaVuSans-35"/>
      </g>
     </g>
    </g>
    <g id="text_10">
     <!-- Error absoluto -->
     <g style="fill: #262626" transform="translate(34.605625 216.832687)rotate(-90)scale(0.12 -0.12)">
      <defs>
       <path id="DejaVuSans-45" d="M 628 4666 
L 3578 4666 
L 3578 4134 
L 1259 4134 
L 1259 2753 
L 3481 2753 
L 3481 2222 
L 1259 2222 
L 1259 531 
L 3634 531 
L 3634 0 
L 628 0 
L 628 4666 
z
" transform="scale(0.015625)"/>
       <path id="DejaVuSans-72" d="M 2631 2963 
Q 2534 3019 2420 3045 
Q 2306 3072 2169 3072 
Q 1681 3072 1420 2755 
Q 1159 2438 1159 1844 
L 1159 0 
L 581 0 
L 581 3500 
L 1159 3500 
L 1159 2956 
Q 1341 3275 1631 3429 
Q 1922 3584 2338 3584 
Q 2397 3584 2469 3576 
Q 2541 3569 2628 3553 
L 2631 2963 
z
" transform="scale(0.015625)"/>
       <path id="DejaVuSans-6f" d="M 1959 3097 
Q 1497 3097 1228 2736 
Q 959 2375 959 1747 
Q 959 1119 1226 758 
Q 1494 397 1959 397 
Q 2419 397 2687 759 
Q 2956 1122 2956 1747 
Q 2956 2369 2687 2733 
Q 2419 3097 1959 3097 
z
M 1959 3584 
Q 2709 3584 3137 3096 
Q 3566 2609 3566 1747 
Q 3566 888 3137 398 
Q 2709 -91 1959 -91 
Q 1206 -91 779 398 
Q 353 888 353 1747 
Q 353 2609 779 3096 
Q 1206 3584 1959 3584 
z
" transform="scale(0.015625)"/>
       <path id="DejaVuSans-61" d="M 2194 1759 
Q 1497 1759 1228 1600 
Q 959 1441 959 1056 
Q 959 750 1161 570 
Q 1363 391 1709 391 
Q 2188 391 2477 730 
Q 2766 1069 2766 1631 
L 2766 1759 
L 2194 1759 
z
M 3341 1997 
L 3341 0 
L 2766 0 
L 2766 531 
Q 2569 213 2275 61 
Q 1981 -91 1556 -91 
Q 1019 -91 701 211 
Q 384 513 384 1019 
Q 384 1609 779 1909 
Q 1175 2209 1959 2209 
L 2766 2209 
L 2766 2266 
Q 2766 2663 2505 2880 
Q 2244 3097 1772 3097 
Q 1472 3097 1187 3025 
Q 903 2953 641 2809 
L 641 3341 
Q 956 3463 1253 3523 
Q 1550 3584 1831 3584 
Q 2591 3584 2966 3190 
Q 3341 2797 3341 1997 
z
" transform="scale(0.015625)"/>
       <path id="DejaVuSans-62" d="M 3116 1747 
Q 3116 2381 2855 2742 
Q 2594 3103 2138 3103 
Q 1681 3103 1420 2742 
Q 1159 2381 1159 1747 
Q 1159 1113 1420 752 
Q 1681 391 2138 391 
Q 2594 391 2855 752 
Q 3116 1113 3116 1747 
z
M 1159 2969 
Q 1341 3281 1617 3432 
Q 1894 3584 2278 3584 
Q 2916 3584 3314 3078 
Q 3713 2572 3713 1747 
Q 3713 922 3314 415 
Q 2916 -91 2278 -91 
Q 1894 -91 1617 61 
Q 1341 213 1159 525 
L 1159 0 
L 581 0 
L 581 4863 
L 1159 4863 
L 1159 2969 
z
" transform="scale(0.015625)"/>
       <path id="DejaVuSans-6c" d="M 603 4863 
L 1178 4863 
L 1178 0 
L 603 0 
L 603 4863 
z
" transform="scale(0.015625)"/>
       <path id="DejaVuSans-75" d="M 544 1381 
L 544 3500 
L 1119 3500 
L 1119 1403 
Q 1119 906 1312 657 
Q 1506 409 1894 409 
Q 2359 409 2629 706 
Q 2900 1003 2900 1516 
L 2900 3500 
L 3475 3500 
L 3475 0 
L 2900 0 
L 2900 538 
Q 2691 219 2414 64 
Q 2138 -91 1772 -91 
Q 1169 -91 856 284 
Q 544 659 544 1381 
z
M 1991 3584 
L 1991 3584 
z
" transform="scale(0.015625)"/>
      </defs>
      <use xlink:href="#DejaVuSans-45"/>
      <use xlink:href="#DejaVuSans-72" x="63.183594"/>
      <use xlink:href="#DejaVuSans-72" x="102.546875"/>
      <use xlink:href="#DejaVuSans-6f" x="141.410156"/>
      <use xlink:href="#DejaVuSans-72" x="202.591797"/>
      <use xlink:href="#DejaVuSans-20" x="243.705078"/>
      <use xlink:href="#DejaVuSans-61" x="275.492188"/>
      <use xlink:href="#DejaVuSans-62" x="336.771484"/>
      <use xlink:href="#DejaVuSans-73" x="400.248047"/>
      <use xlink:href="#DejaVuSans-6f" x="452.347656"/>
      <use xlink:href="#DejaVuSans-6c" x="513.529297"/>
      <use xlink:href="#DejaVuSans-75" x="541.3125"/>
      <use xlink:href="#DejaVuSans-74" x="604.691406"/>
      <use xlink:href="#DejaVuSans-6f" x="643.900391"/>
     </g>
    </g>
    <g id="text_11">
     <!-- 1e−5 -->
     <g style="fill: #262626" transform="translate(57.6 38.472)scale(0.11 -0.11)">
      <defs>
       <path id="DejaVuSans-2212" d="M 678 2272 
L 4684 2272 
L 4684 1741 
L 678 1741 
L 678 2272 
z
" transform="scale(0.015625)"/>
      </defs>
      <use xlink:href="#DejaVuSans-31"/>
      <use xlink:href="#DejaVuSans-65" x="63.623047"/>
      <use xlink:href="#DejaVuSans-2212" x="125.146484"/>
      <use xlink:href="#DejaVuSans-35" x="208.935547"/>
     </g>
    </g>
   </g>
   <g id="patch_3">
    <path d="M 75.456 261.365109 
L 218.304 261.365109 
L 218.304 200.729528 
L 75.456 200.729528 
L 75.456 261.365109 
z
" clip-path="url(#p11cb6e5625)" style="fill: #5875a4; stroke: #4c4c4c; stroke-width: 1.5; stroke-linejoin: miter"/>
   </g>
   <g id="patch_4">
    <path d="M 254.016 277.569653 
L 396.864 277.569653 
L 396.864 248.783551 
L 254.016 248.783551 
L 254.016 277.569653 
z
" clip-path="url(#p11cb6e5625)" style="fill: #cc8963; stroke: #4c4c4c; stroke-width: 1.5; stroke-linejoin: miter"/>
   </g>
   <g id="line2d_7">
    <path d="M 146.88 261.365109 
L 146.88 295.222668 
" clip-path="url(#p11cb6e5625)" style="fill: none; stroke: #4c4c4c; stroke-width: 1.5; stroke-linecap: round"/>
   </g>
   <g id="line2d_8">
    <path d="M 146.88 200.729528 
L 146.88 110.368329 
" clip-path="url(#p11cb6e5625)" style="fill: none; stroke: #4c4c4c; stroke-width: 1.5; stroke-linecap: round"/>
   </g>
   <g id="line2d_9">
    <path d="M 111.168 295.222668 
L 182.592 295.222668 
" clip-path="url(#p11cb6e5625)" style="fill: none; stroke: #4c4c4c; stroke-width: 1.5; stroke-linecap: round"/>
   </g>
   <g id="line2d_10">
    <path d="M 111.168 110.368329 
L 182.592 110.368329 
" clip-path="url(#p11cb6e5625)" style="fill: none; stroke: #4c4c4c; stroke-width: 1.5; stroke-linecap: round"/>
   </g>
   <g id="line2d_11">
    <defs>
     <path id="m33830960b6" d="M -0 3.535534 
L 2.12132 0 
L -0 -3.535534 
L -2.12132 -0 
z
" style="stroke: #4c4c4c; stroke-linejoin: miter"/>
    </defs>
    <g clip-path="url(#p11cb6e5625)">
     <use xlink:href="#m33830960b6" x="146.88" y="105.621299" style="fill: #4c4c4c; stroke: #4c4c4c; stroke-linejoin: miter"/>
     <use xlink:href="#m33830960b6" x="146.88" y="100.411145" style="fill: #4c4c4c; stroke: #4c4c4c; stroke-linejoin: miter"/>
     <use xlink:href="#m33830960b6" x="146.88" y="104.921788" style="fill: #4c4c4c; stroke: #4c4c4c; stroke-linejoin: miter"/>
     <use xlink:href="#m33830960b6" x="146.88" y="64.760183" style="fill: #4c4c4c; stroke: #4c4c4c; stroke-linejoin: miter"/>
     <use xlink:href="#m33830960b6" x="146.88" y="96.006635" style="fill: #4c4c4c; stroke: #4c4c4c; stroke-linejoin: miter"/>
     <use xlink:href="#m33830960b6" x="146.88" y="53.568" style="fill: #4c4c4c; stroke: #4c4c4c; stroke-linejoin: miter"/>
     <use xlink:href="#m33830960b6" x="146.88" y="107.936923" style="fill: #4c4c4c; stroke: #4c4c4c; stroke-linejoin: miter"/>
     <use xlink:href="#m33830960b6" x="146.88" y="93.560757" style="fill: #4c4c4c; stroke: #4c4c4c; stroke-linejoin: miter"/>
     <use xlink:href="#m33830960b6" x="146.88" y="78.287287" style="fill: #4c4c4c; stroke: #4c4c4c; stroke-linejoin: miter"/>
     <use xlink:href="#m33830960b6" x="146.88" y="90.111442" style="fill: #4c4c4c; stroke: #4c4c4c; stroke-linejoin: miter"/>
     <use xlink:href="#m33830960b6" x="146.88" y="78.610509" style="fill: #4c4c4c; stroke: #4c4c4c; stroke-linejoin: miter"/>
     <use xlink:href="#m33830960b6" x="146.88" y="65.387331" style="fill: #4c4c4c; stroke: #4c4c4c; stroke-linejoin: miter"/>
     <use xlink:href="#m33830960b6" x="146.88" y="77.148772" style="fill: #4c4c4c; stroke: #4c4c4c; stroke-linejoin: miter"/>
     <use xlink:href="#m33830960b6" x="146.88" y="96.74474" style="fill: #4c4c4c; stroke: #4c4c4c; stroke-linejoin: miter"/>
     <use xlink:href="#m33830960b6" x="146.88" y="90.449137" style="fill: #4c4c4c; stroke: #4c4c4c; stroke-linejoin: miter"/>
     <use xlink:href="#m33830960b6" x="146.88" y="54.774054" style="fill: #4c4c4c; stroke: #4c4c4c; stroke-linejoin: miter"/>
     <use xlink:href="#m33830960b6" x="146.88" y="105.833565" style="fill: #4c4c4c; stroke: #4c4c4c; stroke-linejoin: miter"/>
     <use xlink:href="#m33830960b6" x="146.88" y="63.940066" style="fill: #4c4c4c; stroke: #4c4c4c; stroke-linejoin: miter"/>
     <use xlink:href="#m33830960b6" x="146.88" y="100.314661" style="fill: #4c4c4c; stroke: #4c4c4c; stroke-linejoin: miter"/>
     <use xlink:href="#m33830960b6" x="146.88" y="104.97003" style="fill: #4c4c4c; stroke: #4c4c4c; stroke-linejoin: miter"/>
     <use xlink:href="#m33830960b6" x="146.88" y="108.612314" style="fill: #4c4c4c; stroke: #4c4c4c; stroke-linejoin: miter"/>
     <use xlink:href="#m33830960b6" x="146.88" y="109.528915" style="fill: #4c4c4c; stroke: #4c4c4c; stroke-linejoin: miter"/>
     <use xlink:href="#m33830960b6" x="146.88" y="101.023821" style="fill: #4c4c4c; stroke: #4c4c4c; stroke-linejoin: miter"/>
     <use xlink:href="#m33830960b6" x="146.88" y="107.912802" style="fill: #4c4c4c; stroke: #4c4c4c; stroke-linejoin: miter"/>
     <use xlink:href="#m33830960b6" x="146.88" y="105.380088" style="fill: #4c4c4c; stroke: #4c4c4c; stroke-linejoin: miter"/>
     <use xlink:href="#m33830960b6" x="146.88" y="100.879094" style="fill: #4c4c4c; stroke: #4c4c4c; stroke-linejoin: miter"/>
     <use xlink:href="#m33830960b6" x="146.88" y="85.924022" style="fill: #4c4c4c; stroke: #4c4c4c; stroke-linejoin: miter"/>
     <use xlink:href="#m33830960b6" x="146.88" y="90.299587" style="fill: #4c4c4c; stroke: #4c4c4c; stroke-linejoin: miter"/>
     <use xlink:href="#m33830960b6" x="146.88" y="104.87837" style="fill: #4c4c4c; stroke: #4c4c4c; stroke-linejoin: miter"/>
     <use xlink:href="#m33830960b6" x="146.88" y="99.031419" style="fill: #4c4c4c; stroke: #4c4c4c; stroke-linejoin: miter"/>
     <use xlink:href="#m33830960b6" x="146.88" y="82.310684" style="fill: #4c4c4c; stroke: #4c4c4c; stroke-linejoin: miter"/>
     <use xlink:href="#m33830960b6" x="146.88" y="83.179043" style="fill: #4c4c4c; stroke: #4c4c4c; stroke-linejoin: miter"/>
     <use xlink:href="#m33830960b6" x="146.88" y="101.047942" style="fill: #4c4c4c; stroke: #4c4c4c; stroke-linejoin: miter"/>
     <use xlink:href="#m33830960b6" x="146.88" y="73.390707" style="fill: #4c4c4c; stroke: #4c4c4c; stroke-linejoin: miter"/>
     <use xlink:href="#m33830960b6" x="146.88" y="95.775073" style="fill: #4c4c4c; stroke: #4c4c4c; stroke-linejoin: miter"/>
    </g>
   </g>
   <g id="line2d_12">
    <path d="M 325.44 277.569653 
L 325.44 295.488 
" clip-path="url(#p11cb6e5625)" style="fill: none; stroke: #4c4c4c; stroke-width: 1.5; stroke-linecap: round"/>
   </g>
   <g id="line2d_13">
    <path d="M 325.44 248.783551 
L 325.44 205.608017 
" clip-path="url(#p11cb6e5625)" style="fill: none; stroke: #4c4c4c; stroke-width: 1.5; stroke-linecap: round"/>
   </g>
   <g id="line2d_14">
    <path d="M 289.728 295.488 
L 361.152 295.488 
" clip-path="url(#p11cb6e5625)" style="fill: none; stroke: #4c4c4c; stroke-width: 1.5; stroke-linecap: round"/>
   </g>
   <g id="line2d_15">
    <path d="M 289.728 205.608017 
L 361.152 205.608017 
" clip-path="url(#p11cb6e5625)" style="fill: none; stroke: #4c4c4c; stroke-width: 1.5; stroke-linecap: round"/>
   </g>
   <g id="line2d_16">
    <g clip-path="url(#p11cb6e5625)">
     <use xlink:href="#m33830960b6" x="325.44" y="205.009814" style="fill: #4c4c4c; stroke: #4c4c4c; stroke-linejoin: miter"/>
     <use xlink:href="#m33830960b6" x="325.44" y="198.694914" style="fill: #4c4c4c; stroke: #4c4c4c; stroke-linejoin: miter"/>
     <use xlink:href="#m33830960b6" x="325.44" y="204.927802" style="fill: #4c4c4c; stroke: #4c4c4c; stroke-linejoin: miter"/>
     <use xlink:href="#m33830960b6" x="325.44" y="188.877633" style="fill: #4c4c4c; stroke: #4c4c4c; stroke-linejoin: miter"/>
     <use xlink:href="#m33830960b6" x="325.44" y="195.260072" style="fill: #4c4c4c; stroke: #4c4c4c; stroke-linejoin: miter"/>
     <use xlink:href="#m33830960b6" x="325.44" y="191.439292" style="fill: #4c4c4c; stroke: #4c4c4c; stroke-linejoin: miter"/>
     <use xlink:href="#m33830960b6" x="325.44" y="180.79707" style="fill: #4c4c4c; stroke: #4c4c4c; stroke-linejoin: miter"/>
     <use xlink:href="#m33830960b6" x="325.44" y="203.220029" style="fill: #4c4c4c; stroke: #4c4c4c; stroke-linejoin: miter"/>
     <use xlink:href="#m33830960b6" x="325.44" y="201.198683" style="fill: #4c4c4c; stroke: #4c4c4c; stroke-linejoin: miter"/>
     <use xlink:href="#m33830960b6" x="325.44" y="191.555073" style="fill: #4c4c4c; stroke: #4c4c4c; stroke-linejoin: miter"/>
     <use xlink:href="#m33830960b6" x="325.44" y="199.220754" style="fill: #4c4c4c; stroke: #4c4c4c; stroke-linejoin: miter"/>
     <use xlink:href="#m33830960b6" x="325.44" y="193.441342" style="fill: #4c4c4c; stroke: #4c4c4c; stroke-linejoin: miter"/>
     <use xlink:href="#m33830960b6" x="325.44" y="205.197958" style="fill: #4c4c4c; stroke: #4c4c4c; stroke-linejoin: miter"/>
     <use xlink:href="#m33830960b6" x="325.44" y="189.745992" style="fill: #4c4c4c; stroke: #4c4c4c; stroke-linejoin: miter"/>
     <use xlink:href="#m33830960b6" x="325.44" y="203.596318" style="fill: #4c4c4c; stroke: #4c4c4c; stroke-linejoin: miter"/>
     <use xlink:href="#m33830960b6" x="325.44" y="169.00186" style="fill: #4c4c4c; stroke: #4c4c4c; stroke-linejoin: miter"/>
     <use xlink:href="#m33830960b6" x="325.44" y="202.993291" style="fill: #4c4c4c; stroke: #4c4c4c; stroke-linejoin: miter"/>
     <use xlink:href="#m33830960b6" x="325.44" y="193.040932" style="fill: #4c4c4c; stroke: #4c4c4c; stroke-linejoin: miter"/>
     <use xlink:href="#m33830960b6" x="325.44" y="151.407941" style="fill: #4c4c4c; stroke: #4c4c4c; stroke-linejoin: miter"/>
     <use xlink:href="#m33830960b6" x="325.44" y="194.821068" style="fill: #4c4c4c; stroke: #4c4c4c; stroke-linejoin: miter"/>
     <use xlink:href="#m33830960b6" x="325.44" y="179.272617" style="fill: #4c4c4c; stroke: #4c4c4c; stroke-linejoin: miter"/>
     <use xlink:href="#m33830960b6" x="325.44" y="194.372416" style="fill: #4c4c4c; stroke: #4c4c4c; stroke-linejoin: miter"/>
     <use xlink:href="#m33830960b6" x="325.44" y="145.835971" style="fill: #4c4c4c; stroke: #4c4c4c; stroke-linejoin: miter"/>
     <use xlink:href="#m33830960b6" x="325.44" y="202.887158" style="fill: #4c4c4c; stroke: #4c4c4c; stroke-linejoin: miter"/>
     <use xlink:href="#m33830960b6" x="325.44" y="201.488136" style="fill: #4c4c4c; stroke: #4c4c4c; stroke-linejoin: miter"/>
     <use xlink:href="#m33830960b6" x="325.44" y="196.572259" style="fill: #4c4c4c; stroke: #4c4c4c; stroke-linejoin: miter"/>
     <use xlink:href="#m33830960b6" x="325.44" y="189.147789" style="fill: #4c4c4c; stroke: #4c4c4c; stroke-linejoin: miter"/>
     <use xlink:href="#m33830960b6" x="325.44" y="202.366143" style="fill: #4c4c4c; stroke: #4c4c4c; stroke-linejoin: miter"/>
     <use xlink:href="#m33830960b6" x="325.44" y="203.128369" style="fill: #4c4c4c; stroke: #4c4c4c; stroke-linejoin: miter"/>
     <use xlink:href="#m33830960b6" x="325.44" y="199.611515" style="fill: #4c4c4c; stroke: #4c4c4c; stroke-linejoin: miter"/>
     <use xlink:href="#m33830960b6" x="325.44" y="139.24609" style="fill: #4c4c4c; stroke: #4c4c4c; stroke-linejoin: miter"/>
     <use xlink:href="#m33830960b6" x="325.44" y="190.411734" style="fill: #4c4c4c; stroke: #4c4c4c; stroke-linejoin: miter"/>
     <use xlink:href="#m33830960b6" x="325.44" y="185.75154" style="fill: #4c4c4c; stroke: #4c4c4c; stroke-linejoin: miter"/>
     <use xlink:href="#m33830960b6" x="325.44" y="152.363136" style="fill: #4c4c4c; stroke: #4c4c4c; stroke-linejoin: miter"/>
     <use xlink:href="#m33830960b6" x="325.44" y="197.918215" style="fill: #4c4c4c; stroke: #4c4c4c; stroke-linejoin: miter"/>
     <use xlink:href="#m33830960b6" x="325.44" y="194.787298" style="fill: #4c4c4c; stroke: #4c4c4c; stroke-linejoin: miter"/>
     <use xlink:href="#m33830960b6" x="325.44" y="199.158039" style="fill: #4c4c4c; stroke: #4c4c4c; stroke-linejoin: miter"/>
     <use xlink:href="#m33830960b6" x="325.44" y="199.158039" style="fill: #4c4c4c; stroke: #4c4c4c; stroke-linejoin: miter"/>
     <use xlink:href="#m33830960b6" x="325.44" y="198.603254" style="fill: #4c4c4c; stroke: #4c4c4c; stroke-linejoin: miter"/>
     <use xlink:href="#m33830960b6" x="325.44" y="197.083626" style="fill: #4c4c4c; stroke: #4c4c4c; stroke-linejoin: miter"/>
     <use xlink:href="#m33830960b6" x="325.44" y="199.293117" style="fill: #4c4c4c; stroke: #4c4c4c; stroke-linejoin: miter"/>
     <use xlink:href="#m33830960b6" x="325.44" y="186.808044" style="fill: #4c4c4c; stroke: #4c4c4c; stroke-linejoin: miter"/>
     <use xlink:href="#m33830960b6" x="325.44" y="185.365603" style="fill: #4c4c4c; stroke: #4c4c4c; stroke-linejoin: miter"/>
     <use xlink:href="#m33830960b6" x="325.44" y="201.656983" style="fill: #4c4c4c; stroke: #4c4c4c; stroke-linejoin: miter"/>
     <use xlink:href="#m33830960b6" x="325.44" y="194.382064" style="fill: #4c4c4c; stroke: #4c4c4c; stroke-linejoin: miter"/>
     <use xlink:href="#m33830960b6" x="325.44" y="204.368193" style="fill: #4c4c4c; stroke: #4c4c4c; stroke-linejoin: miter"/>
     <use xlink:href="#m33830960b6" x="325.44" y="201.049132" style="fill: #4c4c4c; stroke: #4c4c4c; stroke-linejoin: miter"/>
     <use xlink:href="#m33830960b6" x="325.44" y="183.932811" style="fill: #4c4c4c; stroke: #4c4c4c; stroke-linejoin: miter"/>
     <use xlink:href="#m33830960b6" x="325.44" y="164.201764" style="fill: #4c4c4c; stroke: #4c4c4c; stroke-linejoin: miter"/>
     <use xlink:href="#m33830960b6" x="325.44" y="193.996127" style="fill: #4c4c4c; stroke: #4c4c4c; stroke-linejoin: miter"/>
     <use xlink:href="#m33830960b6" x="325.44" y="197.011262" style="fill: #4c4c4c; stroke: #4c4c4c; stroke-linejoin: miter"/>
     <use xlink:href="#m33830960b6" x="325.44" y="196.128431" style="fill: #4c4c4c; stroke: #4c4c4c; stroke-linejoin: miter"/>
     <use xlink:href="#m33830960b6" x="325.44" y="153.60296" style="fill: #4c4c4c; stroke: #4c4c4c; stroke-linejoin: miter"/>
     <use xlink:href="#m33830960b6" x="325.44" y="205.472939" style="fill: #4c4c4c; stroke: #4c4c4c; stroke-linejoin: miter"/>
     <use xlink:href="#m33830960b6" x="325.44" y="196.036771" style="fill: #4c4c4c; stroke: #4c4c4c; stroke-linejoin: miter"/>
     <use xlink:href="#m33830960b6" x="325.44" y="189.224976" style="fill: #4c4c4c; stroke: #4c4c4c; stroke-linejoin: miter"/>
     <use xlink:href="#m33830960b6" x="325.44" y="177.791583" style="fill: #4c4c4c; stroke: #4c4c4c; stroke-linejoin: miter"/>
     <use xlink:href="#m33830960b6" x="325.44" y="202.699014" style="fill: #4c4c4c; stroke: #4c4c4c; stroke-linejoin: miter"/>
     <use xlink:href="#m33830960b6" x="325.44" y="197.045032" style="fill: #4c4c4c; stroke: #4c4c4c; stroke-linejoin: miter"/>
     <use xlink:href="#m33830960b6" x="325.44" y="167.062524" style="fill: #4c4c4c; stroke: #4c4c4c; stroke-linejoin: miter"/>
     <use xlink:href="#m33830960b6" x="325.44" y="172.209964" style="fill: #4c4c4c; stroke: #4c4c4c; stroke-linejoin: miter"/>
     <use xlink:href="#m33830960b6" x="325.44" y="185.360779" style="fill: #4c4c4c; stroke: #4c4c4c; stroke-linejoin: miter"/>
     <use xlink:href="#m33830960b6" x="325.44" y="175.176857" style="fill: #4c4c4c; stroke: #4c4c4c; stroke-linejoin: miter"/>
     <use xlink:href="#m33830960b6" x="325.44" y="191.88312" style="fill: #4c4c4c; stroke: #4c4c4c; stroke-linejoin: miter"/>
     <use xlink:href="#m33830960b6" x="325.44" y="172.624846" style="fill: #4c4c4c; stroke: #4c4c4c; stroke-linejoin: miter"/>
     <use xlink:href="#m33830960b6" x="325.44" y="194.208392" style="fill: #4c4c4c; stroke: #4c4c4c; stroke-linejoin: miter"/>
     <use xlink:href="#m33830960b6" x="325.44" y="164.317545" style="fill: #4c4c4c; stroke: #4c4c4c; stroke-linejoin: miter"/>
     <use xlink:href="#m33830960b6" x="325.44" y="150.843508" style="fill: #4c4c4c; stroke: #4c4c4c; stroke-linejoin: miter"/>
     <use xlink:href="#m33830960b6" x="325.44" y="193.460639" style="fill: #4c4c4c; stroke: #4c4c4c; stroke-linejoin: miter"/>
     <use xlink:href="#m33830960b6" x="325.44" y="180.150625" style="fill: #4c4c4c; stroke: #4c4c4c; stroke-linejoin: miter"/>
     <use xlink:href="#m33830960b6" x="325.44" y="188.023747" style="fill: #4c4c4c; stroke: #4c4c4c; stroke-linejoin: miter"/>
     <use xlink:href="#m33830960b6" x="325.44" y="158.702157" style="fill: #4c4c4c; stroke: #4c4c4c; stroke-linejoin: miter"/>
     <use xlink:href="#m33830960b6" x="325.44" y="170.468422" style="fill: #4c4c4c; stroke: #4c4c4c; stroke-linejoin: miter"/>
     <use xlink:href="#m33830960b6" x="325.44" y="164.896451" style="fill: #4c4c4c; stroke: #4c4c4c; stroke-linejoin: miter"/>
     <use xlink:href="#m33830960b6" x="325.44" y="195.153939" style="fill: #4c4c4c; stroke: #4c4c4c; stroke-linejoin: miter"/>
     <use xlink:href="#m33830960b6" x="325.44" y="190.759077" style="fill: #4c4c4c; stroke: #4c4c4c; stroke-linejoin: miter"/>
     <use xlink:href="#m33830960b6" x="325.44" y="197.923039" style="fill: #4c4c4c; stroke: #4c4c4c; stroke-linejoin: miter"/>
     <use xlink:href="#m33830960b6" x="325.44" y="190.151226" style="fill: #4c4c4c; stroke: #4c4c4c; stroke-linejoin: miter"/>
     <use xlink:href="#m33830960b6" x="325.44" y="185.249822" style="fill: #4c4c4c; stroke: #4c4c4c; stroke-linejoin: miter"/>
     <use xlink:href="#m33830960b6" x="325.44" y="163.502252" style="fill: #4c4c4c; stroke: #4c4c4c; stroke-linejoin: miter"/>
     <use xlink:href="#m33830960b6" x="325.44" y="174.130002" style="fill: #4c4c4c; stroke: #4c4c4c; stroke-linejoin: miter"/>
     <use xlink:href="#m33830960b6" x="325.44" y="184.531014" style="fill: #4c4c4c; stroke: #4c4c4c; stroke-linejoin: miter"/>
     <use xlink:href="#m33830960b6" x="325.44" y="167.154185" style="fill: #4c4c4c; stroke: #4c4c4c; stroke-linejoin: miter"/>
     <use xlink:href="#m33830960b6" x="325.44" y="177.970079" style="fill: #4c4c4c; stroke: #4c4c4c; stroke-linejoin: miter"/>
     <use xlink:href="#m33830960b6" x="325.44" y="204.778251" style="fill: #4c4c4c; stroke: #4c4c4c; stroke-linejoin: miter"/>
     <use xlink:href="#m33830960b6" x="325.44" y="156.492665" style="fill: #4c4c4c; stroke: #4c4c4c; stroke-linejoin: miter"/>
     <use xlink:href="#m33830960b6" x="325.44" y="201.121495" style="fill: #4c4c4c; stroke: #4c4c4c; stroke-linejoin: miter"/>
     <use xlink:href="#m33830960b6" x="325.44" y="160.969539" style="fill: #4c4c4c; stroke: #4c4c4c; stroke-linejoin: miter"/>
     <use xlink:href="#m33830960b6" x="325.44" y="190.575757" style="fill: #4c4c4c; stroke: #4c4c4c; stroke-linejoin: miter"/>
     <use xlink:href="#m33830960b6" x="325.44" y="202.235889" style="fill: #4c4c4c; stroke: #4c4c4c; stroke-linejoin: miter"/>
     <use xlink:href="#m33830960b6" x="325.44" y="166.179693" style="fill: #4c4c4c; stroke: #4c4c4c; stroke-linejoin: miter"/>
     <use xlink:href="#m33830960b6" x="325.44" y="203.543252" style="fill: #4c4c4c; stroke: #4c4c4c; stroke-linejoin: miter"/>
     <use xlink:href="#m33830960b6" x="325.44" y="205.458466" style="fill: #4c4c4c; stroke: #4c4c4c; stroke-linejoin: miter"/>
     <use xlink:href="#m33830960b6" x="325.44" y="174.062463" style="fill: #4c4c4c; stroke: #4c4c4c; stroke-linejoin: miter"/>
     <use xlink:href="#m33830960b6" x="325.44" y="145.633353" style="fill: #4c4c4c; stroke: #4c4c4c; stroke-linejoin: miter"/>
     <use xlink:href="#m33830960b6" x="325.44" y="159.271414" style="fill: #4c4c4c; stroke: #4c4c4c; stroke-linejoin: miter"/>
     <use xlink:href="#m33830960b6" x="325.44" y="142.830483" style="fill: #4c4c4c; stroke: #4c4c4c; stroke-linejoin: miter"/>
     <use xlink:href="#m33830960b6" x="325.44" y="163.410592" style="fill: #4c4c4c; stroke: #4c4c4c; stroke-linejoin: miter"/>
     <use xlink:href="#m33830960b6" x="325.44" y="205.260673" style="fill: #4c4c4c; stroke: #4c4c4c; stroke-linejoin: miter"/>
     <use xlink:href="#m33830960b6" x="325.44" y="187.193981" style="fill: #4c4c4c; stroke: #4c4c4c; stroke-linejoin: miter"/>
     <use xlink:href="#m33830960b6" x="325.44" y="189.934136" style="fill: #4c4c4c; stroke: #4c4c4c; stroke-linejoin: miter"/>
     <use xlink:href="#m33830960b6" x="325.44" y="204.1704" style="fill: #4c4c4c; stroke: #4c4c4c; stroke-linejoin: miter"/>
     <use xlink:href="#m33830960b6" x="325.44" y="188.014098" style="fill: #4c4c4c; stroke: #4c4c4c; stroke-linejoin: miter"/>
     <use xlink:href="#m33830960b6" x="325.44" y="190.860386" style="fill: #4c4c4c; stroke: #4c4c4c; stroke-linejoin: miter"/>
     <use xlink:href="#m33830960b6" x="325.44" y="174.322971" style="fill: #4c4c4c; stroke: #4c4c4c; stroke-linejoin: miter"/>
     <use xlink:href="#m33830960b6" x="325.44" y="205.603193" style="fill: #4c4c4c; stroke: #4c4c4c; stroke-linejoin: miter"/>
     <use xlink:href="#m33830960b6" x="325.44" y="196.408235" style="fill: #4c4c4c; stroke: #4c4c4c; stroke-linejoin: miter"/>
     <use xlink:href="#m33830960b6" x="325.44" y="181.535175" style="fill: #4c4c4c; stroke: #4c4c4c; stroke-linejoin: miter"/>
     <use xlink:href="#m33830960b6" x="325.44" y="205.424697" style="fill: #4c4c4c; stroke: #4c4c4c; stroke-linejoin: miter"/>
     <use xlink:href="#m33830960b6" x="325.44" y="178.013497" style="fill: #4c4c4c; stroke: #4c4c4c; stroke-linejoin: miter"/>
     <use xlink:href="#m33830960b6" x="325.44" y="197.160813" style="fill: #4c4c4c; stroke: #4c4c4c; stroke-linejoin: miter"/>
     <use xlink:href="#m33830960b6" x="325.44" y="154.15292" style="fill: #4c4c4c; stroke: #4c4c4c; stroke-linejoin: miter"/>
     <use xlink:href="#m33830960b6" x="325.44" y="159.0495" style="fill: #4c4c4c; stroke: #4c4c4c; stroke-linejoin: miter"/>
     <use xlink:href="#m33830960b6" x="325.44" y="201.082901" style="fill: #4c4c4c; stroke: #4c4c4c; stroke-linejoin: miter"/>
     <use xlink:href="#m33830960b6" x="325.44" y="141.142008" style="fill: #4c4c4c; stroke: #4c4c4c; stroke-linejoin: miter"/>
     <use xlink:href="#m33830960b6" x="325.44" y="96.426342" style="fill: #4c4c4c; stroke: #4c4c4c; stroke-linejoin: miter"/>
     <use xlink:href="#m33830960b6" x="325.44" y="153.376221" style="fill: #4c4c4c; stroke: #4c4c4c; stroke-linejoin: miter"/>
     <use xlink:href="#m33830960b6" x="325.44" y="159.541571" style="fill: #4c4c4c; stroke: #4c4c4c; stroke-linejoin: miter"/>
     <use xlink:href="#m33830960b6" x="325.44" y="165.793755" style="fill: #4c4c4c; stroke: #4c4c4c; stroke-linejoin: miter"/>
     <use xlink:href="#m33830960b6" x="325.44" y="149.521672" style="fill: #4c4c4c; stroke: #4c4c4c; stroke-linejoin: miter"/>
     <use xlink:href="#m33830960b6" x="325.44" y="157.332079" style="fill: #4c4c4c; stroke: #4c4c4c; stroke-linejoin: miter"/>
     <use xlink:href="#m33830960b6" x="325.44" y="202.935401" style="fill: #4c4c4c; stroke: #4c4c4c; stroke-linejoin: miter"/>
     <use xlink:href="#m33830960b6" x="325.44" y="194.705287" style="fill: #4c4c4c; stroke: #4c4c4c; stroke-linejoin: miter"/>
     <use xlink:href="#m33830960b6" x="325.44" y="137.736111" style="fill: #4c4c4c; stroke: #4c4c4c; stroke-linejoin: miter"/>
     <use xlink:href="#m33830960b6" x="325.44" y="184.434529" style="fill: #4c4c4c; stroke: #4c4c4c; stroke-linejoin: miter"/>
     <use xlink:href="#m33830960b6" x="325.44" y="173.276116" style="fill: #4c4c4c; stroke: #4c4c4c; stroke-linejoin: miter"/>
     <use xlink:href="#m33830960b6" x="325.44" y="197.040208" style="fill: #4c4c4c; stroke: #4c4c4c; stroke-linejoin: miter"/>
     <use xlink:href="#m33830960b6" x="325.44" y="203.113897" style="fill: #4c4c4c; stroke: #4c4c4c; stroke-linejoin: miter"/>
     <use xlink:href="#m33830960b6" x="325.44" y="195.723197" style="fill: #4c4c4c; stroke: #4c4c4c; stroke-linejoin: miter"/>
     <use xlink:href="#m33830960b6" x="325.44" y="188.501344" style="fill: #4c4c4c; stroke: #4c4c4c; stroke-linejoin: miter"/>
     <use xlink:href="#m33830960b6" x="325.44" y="176.378087" style="fill: #4c4c4c; stroke: #4c4c4c; stroke-linejoin: miter"/>
     <use xlink:href="#m33830960b6" x="325.44" y="200.947823" style="fill: #4c4c4c; stroke: #4c4c4c; stroke-linejoin: miter"/>
     <use xlink:href="#m33830960b6" x="325.44" y="199.722472" style="fill: #4c4c4c; stroke: #4c4c4c; stroke-linejoin: miter"/>
     <use xlink:href="#m33830960b6" x="325.44" y="174.250608" style="fill: #4c4c4c; stroke: #4c4c4c; stroke-linejoin: miter"/>
     <use xlink:href="#m33830960b6" x="325.44" y="172.041116" style="fill: #4c4c4c; stroke: #4c4c4c; stroke-linejoin: miter"/>
     <use xlink:href="#m33830960b6" x="325.44" y="176.228536" style="fill: #4c4c4c; stroke: #4c4c4c; stroke-linejoin: miter"/>
     <use xlink:href="#m33830960b6" x="325.44" y="197.373079" style="fill: #4c4c4c; stroke: #4c4c4c; stroke-linejoin: miter"/>
     <use xlink:href="#m33830960b6" x="325.44" y="204.561162" style="fill: #4c4c4c; stroke: #4c4c4c; stroke-linejoin: miter"/>
     <use xlink:href="#m33830960b6" x="325.44" y="201.27587" style="fill: #4c4c4c; stroke: #4c4c4c; stroke-linejoin: miter"/>
     <use xlink:href="#m33830960b6" x="325.44" y="200.161476" style="fill: #4c4c4c; stroke: #4c4c4c; stroke-linejoin: miter"/>
     <use xlink:href="#m33830960b6" x="325.44" y="174.052815" style="fill: #4c4c4c; stroke: #4c4c4c; stroke-linejoin: miter"/>
     <use xlink:href="#m33830960b6" x="325.44" y="201.328936" style="fill: #4c4c4c; stroke: #4c4c4c; stroke-linejoin: miter"/>
     <use xlink:href="#m33830960b6" x="325.44" y="200.248312" style="fill: #4c4c4c; stroke: #4c4c4c; stroke-linejoin: miter"/>
     <use xlink:href="#m33830960b6" x="325.44" y="153.038526" style="fill: #4c4c4c; stroke: #4c4c4c; stroke-linejoin: miter"/>
     <use xlink:href="#m33830960b6" x="325.44" y="193.311088" style="fill: #4c4c4c; stroke: #4c4c4c; stroke-linejoin: miter"/>
     <use xlink:href="#m33830960b6" x="325.44" y="179.156836" style="fill: #4c4c4c; stroke: #4c4c4c; stroke-linejoin: miter"/>
     <use xlink:href="#m33830960b6" x="325.44" y="61.966961" style="fill: #4c4c4c; stroke: #4c4c4c; stroke-linejoin: miter"/>
     <use xlink:href="#m33830960b6" x="325.44" y="151.359699" style="fill: #4c4c4c; stroke: #4c4c4c; stroke-linejoin: miter"/>
     <use xlink:href="#m33830960b6" x="325.44" y="185.717771" style="fill: #4c4c4c; stroke: #4c4c4c; stroke-linejoin: miter"/>
     <use xlink:href="#m33830960b6" x="325.44" y="132.337812" style="fill: #4c4c4c; stroke: #4c4c4c; stroke-linejoin: miter"/>
     <use xlink:href="#m33830960b6" x="325.44" y="204.628701" style="fill: #4c4c4c; stroke: #4c4c4c; stroke-linejoin: miter"/>
     <use xlink:href="#m33830960b6" x="325.44" y="204.194521" style="fill: #4c4c4c; stroke: #4c4c4c; stroke-linejoin: miter"/>
     <use xlink:href="#m33830960b6" x="325.44" y="205.149716" style="fill: #4c4c4c; stroke: #4c4c4c; stroke-linejoin: miter"/>
     <use xlink:href="#m33830960b6" x="325.44" y="170.950843" style="fill: #4c4c4c; stroke: #4c4c4c; stroke-linejoin: miter"/>
     <use xlink:href="#m33830960b6" x="325.44" y="193.523354" style="fill: #4c4c4c; stroke: #4c4c4c; stroke-linejoin: miter"/>
     <use xlink:href="#m33830960b6" x="325.44" y="202.592881" style="fill: #4c4c4c; stroke: #4c4c4c; stroke-linejoin: miter"/>
     <use xlink:href="#m33830960b6" x="325.44" y="190.329722" style="fill: #4c4c4c; stroke: #4c4c4c; stroke-linejoin: miter"/>
     <use xlink:href="#m33830960b6" x="325.44" y="190.209117" style="fill: #4c4c4c; stroke: #4c4c4c; stroke-linejoin: miter"/>
     <use xlink:href="#m33830960b6" x="325.44" y="181.742616" style="fill: #4c4c4c; stroke: #4c4c4c; stroke-linejoin: miter"/>
     <use xlink:href="#m33830960b6" x="325.44" y="200.581183" style="fill: #4c4c4c; stroke: #4c4c4c; stroke-linejoin: miter"/>
     <use xlink:href="#m33830960b6" x="325.44" y="150.346613" style="fill: #4c4c4c; stroke: #4c4c4c; stroke-linejoin: miter"/>
     <use xlink:href="#m33830960b6" x="325.44" y="179.045879" style="fill: #4c4c4c; stroke: #4c4c4c; stroke-linejoin: miter"/>
     <use xlink:href="#m33830960b6" x="325.44" y="203.089776" style="fill: #4c4c4c; stroke: #4c4c4c; stroke-linejoin: miter"/>
     <use xlink:href="#m33830960b6" x="325.44" y="193.219428" style="fill: #4c4c4c; stroke: #4c4c4c; stroke-linejoin: miter"/>
     <use xlink:href="#m33830960b6" x="325.44" y="189.987203" style="fill: #4c4c4c; stroke: #4c4c4c; stroke-linejoin: miter"/>
     <use xlink:href="#m33830960b6" x="325.44" y="187.440016" style="fill: #4c4c4c; stroke: #4c4c4c; stroke-linejoin: miter"/>
     <use xlink:href="#m33830960b6" x="325.44" y="123.070491" style="fill: #4c4c4c; stroke: #4c4c4c; stroke-linejoin: miter"/>
     <use xlink:href="#m33830960b6" x="325.44" y="182.191268" style="fill: #4c4c4c; stroke: #4c4c4c; stroke-linejoin: miter"/>
     <use xlink:href="#m33830960b6" x="325.44" y="163.54567" style="fill: #4c4c4c; stroke: #4c4c4c; stroke-linejoin: miter"/>
     <use xlink:href="#m33830960b6" x="325.44" y="136.920818" style="fill: #4c4c4c; stroke: #4c4c4c; stroke-linejoin: miter"/>
     <use xlink:href="#m33830960b6" x="325.44" y="194.073314" style="fill: #4c4c4c; stroke: #4c4c4c; stroke-linejoin: miter"/>
     <use xlink:href="#m33830960b6" x="325.44" y="144.933842" style="fill: #4c4c4c; stroke: #4c4c4c; stroke-linejoin: miter"/>
     <use xlink:href="#m33830960b6" x="325.44" y="157.38997" style="fill: #4c4c4c; stroke: #4c4c4c; stroke-linejoin: miter"/>
     <use xlink:href="#m33830960b6" x="325.44" y="177.781934" style="fill: #4c4c4c; stroke: #4c4c4c; stroke-linejoin: miter"/>
     <use xlink:href="#m33830960b6" x="325.44" y="186.253259" style="fill: #4c4c4c; stroke: #4c4c4c; stroke-linejoin: miter"/>
     <use xlink:href="#m33830960b6" x="325.44" y="150.119875" style="fill: #4c4c4c; stroke: #4c4c4c; stroke-linejoin: miter"/>
     <use xlink:href="#m33830960b6" x="325.44" y="203.842353" style="fill: #4c4c4c; stroke: #4c4c4c; stroke-linejoin: miter"/>
     <use xlink:href="#m33830960b6" x="325.44" y="156.791767" style="fill: #4c4c4c; stroke: #4c4c4c; stroke-linejoin: miter"/>
     <use xlink:href="#m33830960b6" x="325.44" y="183.136815" style="fill: #4c4c4c; stroke: #4c4c4c; stroke-linejoin: miter"/>
     <use xlink:href="#m33830960b6" x="325.44" y="179.267793" style="fill: #4c4c4c; stroke: #4c4c4c; stroke-linejoin: miter"/>
     <use xlink:href="#m33830960b6" x="325.44" y="162.990886" style="fill: #4c4c4c; stroke: #4c4c4c; stroke-linejoin: miter"/>
     <use xlink:href="#m33830960b6" x="325.44" y="126.331662" style="fill: #4c4c4c; stroke: #4c4c4c; stroke-linejoin: miter"/>
     <use xlink:href="#m33830960b6" x="325.44" y="156.926845" style="fill: #4c4c4c; stroke: #4c4c4c; stroke-linejoin: miter"/>
     <use xlink:href="#m33830960b6" x="325.44" y="165.316158" style="fill: #4c4c4c; stroke: #4c4c4c; stroke-linejoin: miter"/>
     <use xlink:href="#m33830960b6" x="325.44" y="195.559173" style="fill: #4c4c4c; stroke: #4c4c4c; stroke-linejoin: miter"/>
     <use xlink:href="#m33830960b6" x="325.44" y="186.851462" style="fill: #4c4c4c; stroke: #4c4c4c; stroke-linejoin: miter"/>
     <use xlink:href="#m33830960b6" x="325.44" y="186.687438" style="fill: #4c4c4c; stroke: #4c4c4c; stroke-linejoin: miter"/>
     <use xlink:href="#m33830960b6" x="325.44" y="130.760293" style="fill: #4c4c4c; stroke: #4c4c4c; stroke-linejoin: miter"/>
     <use xlink:href="#m33830960b6" x="325.44" y="197.787961" style="fill: #4c4c4c; stroke: #4c4c4c; stroke-linejoin: miter"/>
     <use xlink:href="#m33830960b6" x="325.44" y="177.555196" style="fill: #4c4c4c; stroke: #4c4c4c; stroke-linejoin: miter"/>
     <use xlink:href="#m33830960b6" x="325.44" y="199.925089" style="fill: #4c4c4c; stroke: #4c4c4c; stroke-linejoin: miter"/>
     <use xlink:href="#m33830960b6" x="325.44" y="193.007162" style="fill: #4c4c4c; stroke: #4c4c4c; stroke-linejoin: miter"/>
     <use xlink:href="#m33830960b6" x="325.44" y="170.058363" style="fill: #4c4c4c; stroke: #4c4c4c; stroke-linejoin: miter"/>
     <use xlink:href="#m33830960b6" x="325.44" y="205.120771" style="fill: #4c4c4c; stroke: #4c4c4c; stroke-linejoin: miter"/>
     <use xlink:href="#m33830960b6" x="325.44" y="198.246262" style="fill: #4c4c4c; stroke: #4c4c4c; stroke-linejoin: miter"/>
    </g>
   </g>
   <g id="line2d_17">
    <path d="M 75.456 230.841083 
L 218.304 230.841083 
" clip-path="url(#p11cb6e5625)" style="fill: none; stroke: #4c4c4c; stroke-width: 1.5; stroke-linecap: round"/>
   </g>
   <g id="line2d_18">
    <path d="M 254.016 263.5348 
L 396.864 263.5348 
" clip-path="url(#p11cb6e5625)" style="fill: none; stroke: #4c4c4c; stroke-width: 1.5; stroke-linecap: round"/>
   </g>
   <g id="patch_5">
    <path d="M 57.6 307.584 
L 57.6 41.472 
" style="fill: none; stroke: #ffffff; stroke-width: 1.25; stroke-linejoin: miter; stroke-linecap: square"/>
   </g>
   <g id="patch_6">
    <path d="M 414.72 307.584 
L 414.72 41.472 
" style="fill: none; stroke: #ffffff; stroke-width: 1.25; stroke-linejoin: miter; stroke-linecap: square"/>
   </g>
   <g id="patch_7">
    <path d="M 57.6 307.584 
L 414.72 307.584 
" style="fill: none; stroke: #ffffff; stroke-width: 1.25; stroke-linejoin: miter; stroke-linecap: square"/>
   </g>
   <g id="patch_8">
    <path d="M 57.6 41.472 
L 414.72 41.472 
" style="fill: none; stroke: #ffffff; stroke-width: 1.25; stroke-linejoin: miter; stroke-linecap: square"/>
   </g>
  </g>
 </g>
 <defs>
  <clipPath id="p11cb6e5625">
   <rect x="57.6" y="41.472" width="357.12" height="266.112"/>
  </clipPath>
 </defs>
</svg>
